








LONG LIVE TPB. :)



Later,Live With Jools Holland (BBC2,Alicia Keys,Jeff Beck,)s36eo6[DTV-RIP-Divx]

First Shown On BBC 2 On Tuesday 18th May 2010

Description:

Joining Jools are Alicia Keys, who makes a welcome return to the studio to perform tracks from her chart-topping album The Element of Freedom; Yeasayer, the Brooklyn-based band also returning to the show, performing tunes from their ODD BLOOD album; White Rabbits, another Brooklyn band, who make their TV debut on the show with songs from their new It's Frightening long player; and guitar legend Jeff Beck, who is in the room to play a number from Emotion and Commotion, his highest-charting solo album in a career spanning more than four decades. Plus the Creole Choir of Cuba is on hand to perform in the studio.

General

Complete name : Live With Jools Holland.s36eo6..divx.
Format : AVI
Format/Info : Audio Video Interleave
File size : 343 MiB
Duration : 30mn 38s
Overall bit rate : 1 566 Kbps

Video
ID : 0
Format : MPEG-4 Visual
Format settings, BVOP : Yes
Format settings, QPel : No
Format settings, GMC : No warppoints
Format settings, Matrix : Default (H.263)
Muxing mode : Packed bitstream
Codec ID : DX50
Codec ID/Hint : DivX 5
Duration : 30mn 38s
Bit rate : 1 300 Kbps
Width : 688 pixels
Height : 384 pixels
Display aspect ratio : 16/9
Frame rate : 25.000 fps
Resolution : 24 bits
Colorimetry : 4:2:0
Scan type : Progressive
Bits/(Pixel*Frame) : 0.197
Stream size : 285 MiB (83%)
Title : Video
Writing library : DivX 6.8.2 (UTC 2008-05-17)

Audio
ID : 1
Format : AC-3
Format/Info : Audio Coding 3
Codec ID : 2000
Duration : 30mn 37s
Bit rate mode : Constant
Bit rate : 256 Kbps
Channel(s) : 2 channels
Channel positions : L R
Sampling rate : 48.0 KHz
Stream size : 56.1 MiB (16%)
Alignment : Split accross interleaves
Interleave, duration : 40 ms (1.00 video frame)
Interleave, preload duration : 500 ms
